<svg xmlns="http://www.w3.org/2000/svg" xmlns:xlink="http://www.w3.org/1999/xlink" width="570pt" height="220pt" viewBox="0.00 0.00 570.00 220.00">
<g id="graph0" class="graph" transform="scale(1 1) rotate(0) translate(4 216)">
<title>G</title>
<polygon fill="white" stroke="none" points="-4,4 -4,-216 566,-216 566,4 -4,4"/>
<g id="clust1" class="cluster">
<title>cluster_stdlib</title>
<polygon fill="lightgrey" stroke="lightgrey" points="178,-85.6 178,-168 554,-168 554,-85.6 178,-85.6"/>
<text text-anchor="middle" x="366" y="-151.4" font-family="Times,serif" font-size="14.00">Python Standard Library</text>
</g>
<g id="clust2" class="cluster">
<title>cluster_external</title>
<polygon fill="lightblue" stroke="lightblue" points="8,-8 8,-168 170,-168 170,-8 8,-8"/>
<text text-anchor="middle" x="89" y="-151.4" font-family="Times,serif" font-size="14.00">External Dependencies</text>
</g>
<!-- app -->
<g id="node1" class="node">
<title>app</title>
<polygon fill="lightblue" stroke="black" points="352,-212 298,-212 298,-176 352,-176 352,-212"/>
<text text-anchor="middle" x="325" y="-189.8" font-family="Times,serif" font-size="14.00">app.py</text>
</g>
<!-- flask -->
<g id="node2" class="node">
<title>flask</title>
<polygon fill="lightgrey" stroke="black" points="72,-135.2 18,-135.2 18,-93.6 72,-93.6 72,-135.2"/>
<text text-anchor="middle" x="45" y="-118.6" font-family="Times,serif" font-size="14.00">Flask</text>
<text text-anchor="middle" x="45" y="-101.8" font-family="Times,serif" font-size="14.00">v0.5</text>
</g>
<!-- app&#45;&gt;flask -->
<g id="edge1" class="edge">
<title>app-&gt;flask</title>
<path fill="none" stroke="black" d="M297.84,-193.04C242.11,-192.68 117.05,-189.43 81,-168 71.95,-162.62 64.65,-153.97 59.05,-145.22"/>
<polygon fill="black" stroke="black" points="62.22,-143.72 54.21,-136.79 56.16,-147.2 62.22,-143.72"/>
</g>
<!-- sqlite3 -->
<g id="node6" class="node">
<title>sqlite3</title>
<polygon fill="lightgrey" stroke="black" points="242.22,-135.2 185.78,-135.2 185.78,-93.6 242.22,-93.6 242.22,-135.2"/>
<text text-anchor="middle" x="214" y="-118.6" font-family="Times,serif" font-size="14.00">sqlite3</text>
<text text-anchor="middle" x="214" y="-101.8" font-family="Times,serif" font-size="14.00">(stdlib)</text>
</g>
<!-- app&#45;&gt;sqlite3 -->
<g id="edge2" class="edge">
<title>app-&gt;sqlite3</title>
<path fill="none" stroke="black" d="M297.72,-188.12C282.83,-184.44 264.69,-178.23 251,-168 242.84,-161.9 235.79,-153.46 230.1,-145.13"/>
<polygon fill="black" stroke="black" points="233.16,-143.42 224.87,-136.82 227.24,-147.15 233.16,-143.42"/>
</g>
<!-- hashlib -->
<g id="node7" class="node">
<title>hashlib</title>
<polygon fill="lightgrey" stroke="black" points="316.22,-135.2 259.78,-135.2 259.78,-93.6 316.22,-93.6 316.22,-135.2"/>
<text text-anchor="middle" x="288" y="-118.6" font-family="Times,serif" font-size="14.00">hashlib</text>
<text text-anchor="middle" x="288" y="-101.8" font-family="Times,serif" font-size="14.00">(stdlib)</text>
</g>
<!-- app&#45;&gt;hashlib -->
<g id="edge3" class="edge">
<title>app-&gt;hashlib</title>
<path fill="none" stroke="black" d="M316.79,-175.78C312.59,-166.96 307.34,-155.97 302.49,-145.79"/>
<polygon fill="black" stroke="black" points="305.74,-144.48 298.28,-136.96 299.43,-147.49 305.74,-144.48"/>
</g>
<!-- os -->
<g id="node8" class="node">
<title>os</title>
<polygon fill="lightgrey" stroke="black" points="390.22,-135.2 333.78,-135.2 333.78,-93.6 390.22,-93.6 390.22,-135.2"/>
<text text-anchor="middle" x="362" y="-118.6" font-family="Times,serif" font-size="14.00">os</text>
<text text-anchor="middle" x="362" y="-101.8" font-family="Times,serif" font-size="14.00">(stdlib)</text>
</g>
<!-- app&#45;&gt;os -->
<g id="edge4" class="edge">
<title>app-&gt;os</title>
<path fill="none" stroke="black" d="M333.21,-175.78C337.41,-166.96 342.66,-155.97 347.51,-145.79"/>
<polygon fill="black" stroke="black" points="350.57,-147.49 351.72,-136.96 344.26,-144.48 350.57,-147.49"/>
</g>
<!-- sys -->
<g id="node9" class="node">
<title>sys</title>
<polygon fill="lightgrey" stroke="black" points="464.22,-135.2 407.78,-135.2 407.78,-93.6 464.22,-93.6 464.22,-135.2"/>
<text text-anchor="middle" x="436" y="-118.6" font-family="Times,serif" font-size="14.00">sys</text>
<text text-anchor="middle" x="436" y="-101.8" font-family="Times,serif" font-size="14.00">(stdlib)</text>
</g>
<!-- app&#45;&gt;sys -->
<g id="edge5" class="edge">
<title>app-&gt;sys</title>
<path fill="none" stroke="black" d="M352.28,-188.12C367.17,-184.44 385.31,-178.23 399,-168 407.16,-161.9 414.21,-153.46 419.9,-145.13"/>
<polygon fill="black" stroke="black" points="422.76,-147.15 425.13,-136.82 416.84,-143.42 422.76,-147.15"/>
</g>
<!-- datetime -->
<g id="node10" class="node">
<title>datetime</title>
<polygon fill="lightgrey" stroke="black" points="546.1,-135.2 481.9,-135.2 481.9,-93.6 546.1,-93.6 546.1,-135.2"/>
<text text-anchor="middle" x="514" y="-118.6" font-family="Times,serif" font-size="14.00">datetime</text>
<text text-anchor="middle" x="514" y="-101.8" font-family="Times,serif" font-size="14.00">(stdlib)</text>
</g>
<!-- app&#45;&gt;datetime -->
<g id="edge6" class="edge">
<title>app-&gt;datetime</title>
<path fill="none" stroke="black" d="M352.3,-190.76C389.31,-187.33 453.08,-179.88 473,-168 482.49,-162.34 490.61,-153.58 497.05,-144.83"/>
<polygon fill="black" stroke="black" points="499.82,-146.98 502.53,-136.73 494.02,-143.05 499.82,-146.98"/>
</g>
<!-- werkzeug -->
<g id="node3" class="node">
<title>werkzeug</title>
<polygon fill="lightgrey" stroke="black" points="89.76,-57.6 16.24,-57.6 16.24,-16 89.76,-16 89.76,-57.6"/>
<text text-anchor="middle" x="53" y="-41" font-family="Times,serif" font-size="14.00">Werkzeug</text>
<text text-anchor="middle" x="53" y="-24.2" font-family="Times,serif" font-size="14.00">v0.6.1</text>
</g>
<!-- flask&#45;&gt;werkzeug -->
<g id="edge7" class="edge">
<title>flask-&gt;werkzeug</title>
<path fill="none" stroke="black" d="M47.14,-93.14C47.92,-85.79 48.82,-77.31 49.67,-69.23"/>
<polygon fill="black" stroke="black" points="53.15,-69.67 50.72,-59.36 46.19,-68.93 53.15,-69.67"/>
</g>
<!-- jinja -->
<g id="node4" class="node">
<title>jinja</title>
<polygon fill="lightgrey" stroke="black" points="162,-57.6 108,-57.6 108,-16 162,-16 162,-57.6"/>
<text text-anchor="middle" x="135" y="-41" font-family="Times,serif" font-size="14.00">Jinja2</text>
<text text-anchor="middle" x="135" y="-24.2" font-family="Times,serif" font-size="14.00">v2.4</text>
</g>
<!-- flask&#45;&gt;jinja -->
<g id="edge8" class="edge">
<title>flask-&gt;jinja</title>
<path fill="none" stroke="black" d="M69.12,-93.14C79.39,-84.51 91.53,-74.32 102.57,-65.05"/>
<polygon fill="black" stroke="black" points="104.56,-67.94 109.97,-58.83 100.06,-62.58 104.56,-67.94"/>
</g>
<!-- setuptools -->
<g id="node5" class="node">
<title>setuptools</title>
<polygon fill="lightgrey" stroke="black" points="162.39,-135.2 89.61,-135.2 89.61,-93.6 162.39,-93.6 162.39,-135.2"/>
<text text-anchor="middle" x="126" y="-118.6" font-family="Times,serif" font-size="14.00">setuptools</text>
<text text-anchor="middle" x="126" y="-101.8" font-family="Times,serif" font-size="14.00">v44.1.1</text>
</g>
</g>
</svg>